<svg height="512pt" viewBox="-5 0 512 512.00041" width="512pt" xmlns="http://www.w3.org/2000/svg"><path d="m177.152344 510.25c-7.691406-3.972656-10.707032-13.429688-6.734375-21.121094l35.933593-69.554687h-32.28125c-11.605468 0-19.1875-12.207031-14.058593-22.605469l57.085937-115.757812c3.828125-7.765626 13.226563-10.953126 20.988282-7.125 7.765624 3.828124 10.953124 13.222656 7.125 20.988281l-45.9375 93.152343h32.816406c11.726562 0 19.3125 12.445313 13.925781 22.867188l-47.746094 92.425781c-3.972656 7.6875-13.425781 10.703125-21.117187 6.730469zm0 0" fill="#ffde55"/><g fill="#5ecef4"><path d="m358.582031 409.484375c-7.6875-3.980469-17.144531-.972656-21.125 6.710937l-32.488281 62.761719c-3.980469 7.6875-.976562 17.148438 6.710938 21.125 7.695312 3.980469 17.148437.972657 21.125-6.710937l32.492187-62.761719c3.980469-7.6875.972656-17.144531-6.714844-21.125zm0 0"/><path d="m385.160156 358.152344c-7.6875-3.980469-17.144531-.976563-21.125 6.714844l-6 11.585937c-3.980468 7.6875-.976562 17.144531 6.710938 21.125 7.683594 3.980469 17.144531.976563 21.125-6.710937l6-11.589844c3.980468-7.6875.976562-17.144532-6.710938-21.125zm0 0"/><path d="m319.378906 358.152344c-7.691406-3.980469-17.148437-.972656-21.125 6.710937l-32.492187 62.761719c-3.980469 7.6875-.976563 17.148438 6.710937 21.125 7.695313 3.984375 17.148438.972656 21.125-6.710938l32.492188-62.761718c3.980468-7.6875.972656-17.144532-6.710938-21.125zm0 0"/><path d="m266.308594 460.65625c-7.6875-3.976562-17.144532-.972656-21.125 6.714844l-6 11.589844c-3.980469 7.6875-.972656 17.144531 6.714844 21.125 7.6875 3.976562 17.144531.96875 21.125-6.714844l5.996093-11.589844c3.980469-7.6875.976563-17.144531-6.710937-21.125zm0 0"/></g><path d="m115.289062 409.484375c-7.6875-3.980469-17.144531-.972656-21.125 6.710937l-32.492187 62.761719c-3.980469 7.6875-.972656 17.148438 6.714844 21.125 7.691406 3.980469 17.148437.972657 21.125-6.710937l32.492187-62.761719c3.980469-7.6875.972656-17.144531-6.714844-21.125zm0 0" fill="#7ed8f6"/><path d="m141.863281 358.152344c-7.683593-3.976563-17.144531-.976563-21.125 6.714844l-5.996093 11.585937c-3.980469 7.6875-.976563 17.144531 6.710937 21.125 7.691406 3.980469 17.148437.972656 21.125-6.710937l6-11.589844c3.980469-7.6875.972656-17.144532-6.714844-21.125zm0 0" fill="#7ed8f6"/><path d="m81.949219 358.152344c-7.6875-3.980469-17.144531-.972656-21.125 6.710937l-32.492188 62.761719c-3.976562 7.6875-.972656 17.148438 6.714844 21.125 7.691406 3.984375 17.148437.972656 21.125-6.710938l32.492187-62.761718c3.980469-7.6875.972657-17.144532-6.714843-21.125zm0 0" fill="#7ed8f6"/><path d="m28.882812 460.65625c-7.6875-3.976562-17.144531-.972656-21.125 6.714844l-6 11.589844c-3.980468 7.6875-.972656 17.144531 6.714844 21.125 7.6875 3.976562 17.144532.96875 21.125-6.714844l6-11.589844c3.976563-7.6875.972656-17.144531-6.714844-21.125zm0 0" fill="#7ed8f6"/><path d="m500.941406 229.457031c-52.691406 71.761719-156.515625 79.246094-219.003906 16.753907-85.457031-85.453126-33.96875-232.558594 85.570312-246.1406255 8.113282-.9140625 14.152344 7.2382815 11.097657 14.8046875-16.242188 40.128906-13.828125 86.953125 8.601562 126.054688 21.9375 38.265624 60.847657 65.542968 106.460938 71.585937 8.046875 1.054687 12.082031 10.390625 7.273437 16.941406zm0 0" fill="#ffeb99"/><path d="m500.941406 229.457031c-52.691406 71.761719-156.515625 79.246094-219.003906 16.753907l105.269531-105.28125c21.9375 38.265624 60.847657 65.542968 106.460938 71.585937 8.046875 1.054687 12.082031 10.390625 7.273437 16.941406zm0 0" fill="#ffda44"/><path d="m410.90625 261.527344c0 38.132812-30.90625 69.039062-69.035156 69.039062h-266.539063c-38.128906 0-69.046875-30.90625-69.046875-69.039062 0-38.128906 30.917969-69.046875 69.046875-69.046875 10.972657 0 21.335938 2.566406 30.554688 7.117187 8.640625-53.546875 54.910156-94.484375 110.824219-94.765625h.585937c54.183594 0 99.441406 38.191407 110.355469 89.113281 4.589844-.949218 9.347656-1.464843 14.21875-1.464843 38.128906 0 69.035156 30.917969 69.035156 69.046875zm0 0" fill="#eef6ff"/><path d="m410.90625 261.527344c0 38.132812-30.90625 69.039062-69.035156 69.039062h-125.160156v-225.734375h.585937c54.183594 0 99.441406 38.191407 110.355469 89.113281 4.589844-.953124 9.347656-1.464843 14.21875-1.464843 38.128906 0 69.035156 30.917969 69.035156 69.046875zm0 0" fill="#dae2f2"/></svg>