<svg height="512pt" viewBox="0 -26 512.00035 512" width="512pt" xmlns="http://www.w3.org/2000/svg"><path d="m426.375 119.996094c-15.914062-28.320313-49.609375-41.472656-80.503906-31.417969-14.574219-47.214844-64.667969-73.675781-111.882813-59.097656-6.589843 2.035156-12.921875 4.824219-18.871093 8.3125-45.078126-48.140625-120.648438-50.621094-168.789063-5.542969s-50.621094 120.648438-5.542969 168.789062c22.589844 24.121094 54.164063 37.804688 87.214844 37.792969 1.441406 0 2.839844-.164062 4.265625-.214843 1.417969.105468 2.824219.214843 4.269531.214843h281.597656c32.988282-.226562 59.550782-27.152343 59.324219-60.140625-.203125-29.492187-21.898437-54.421875-51.082031-58.695312zm0 0" fill="#aedee2"/><path d="m349.753906 119.363281c-4.558594.007813-8.316406-3.574219-8.53125-8.128906-2.128906-44.722656-40.109375-79.25-84.832031-77.121094-23.457031 1.117188-45.28125 12.351563-59.816406 30.800781-3.007813 3.625-8.390625 4.128907-12.015625 1.117188-3.5-2.902344-4.109375-8.042969-1.382813-11.683594 33.550781-42.5625 95.253907-49.875 137.820313-16.328125 22.324218 17.597657 35.925781 44.015625 37.277344 72.410157.226562 4.707031-3.402344 8.707031-8.109376 8.933593zm0 0" fill="#a6d4d8"/><path d="m503.464844 307.097656c-17.847656.394532-35.601563-2.660156-52.289063-9.003906-14.894531-5.699219-30.753906-8.4375-46.695312-8.0625-15.949219-.378906-31.820313 2.359375-46.71875 8.0625-4.542969 1.570312-9.082031 3.132812-14.175781 4.5-4.550782 1.222656-9.234376-1.472656-10.460938-6.027344-1.226562-4.550781 1.472656-9.234375 6.023438-10.460937 4.695312-1.253907 8.867187-2.703125 13.046874-4.136719 16.6875-6.34375 34.441407-9.402344 52.285157-9.003906 17.847656-.398438 35.605469 2.660156 52.292969 9.003906 14.890624 5.695312 30.753906 8.4375 46.691406 8.0625 4.714844 0 8.535156 3.820312 8.535156 8.53125 0 4.714844-3.820312 8.535156-8.535156 8.535156zm0 0" fill="#eaeae8"/><path d="m305.425781 307.097656c-17.835937.398438-35.582031-2.660156-52.257812-9.003906-14.882813-5.695312-30.730469-8.4375-46.660157-8.0625-15.945312-.378906-31.808593 2.359375-46.703124 8.0625-7.023438 2.578125-14.21875 4.660156-21.53125 6.230469-4.636719.832031-9.074219-2.253907-9.902344-6.894531-.804688-4.480469 2.050781-8.804688 6.488281-9.820313 6.578125-1.4375 13.046875-3.320313 19.363281-5.640625 16.683594-6.347656 34.4375-9.402344 52.285156-9.003906 17.839844-.398438 35.585938 2.660156 52.265626 9.003906 14.878906 5.695312 30.722656 8.4375 46.652343 8.0625 4.710938 0 8.53125 3.820312 8.53125 8.535156 0 4.710938-3.820312 8.53125-8.53125 8.53125zm0 0" fill="#dbdbdb"/><path d="m102.398438 307.03125h-.21875c-16.050782-.191406-31.9375-3.214844-46.933594-8.9375-14.898438-5.703125-30.765625-8.441406-46.710938-8.0625-4.714844 0-8.535156-3.820312-8.535156-8.53125 0-4.714844 3.820312-8.535156 8.535156-8.535156 17.835938-.394532 35.582032 2.660156 52.257813 9.003906 13.351562 5.128906 27.507812 7.835938 41.8125 7.996094 4.710937.054687 8.488281 3.921875 8.429687 8.632812-.054687 4.714844-3.921875 8.488282-8.636718 8.433594zm0 0" fill="#ebebeb"/><path d="m503.464844 358.296875c-17.847656.398437-35.609375-2.660156-52.296875-9-3.21875-1.109375-6.425781-2.210937-9.875-3.253906-4.488281-1.441407-6.953125-6.25-5.511719-10.734375 1.398438-4.355469 5.984375-6.832032 10.394531-5.613282 3.683594 1.101563 7.113281 2.285157 10.554688 3.472657 14.90625 5.703125 30.78125 8.441406 46.734375 8.0625 4.714844 0 8.535156 3.820312 8.535156 8.535156 0 4.710937-3.820312 8.53125-8.535156 8.53125zm0 0" fill="#dbdbdb"/><path d="m305.425781 358.296875c-17.84375.398437-35.59375-2.660156-52.277343-9-5.3125-1.933594-10.726563-3.585937-16.210938-4.949219-4.625-.917968-7.628906-5.40625-6.714844-10.03125.917969-4.621094 5.40625-7.628906 10.03125-6.710937.203125.039062.40625.085937.609375.144531 6.03125 1.484375 11.980469 3.292969 17.816407 5.417969 14.90625 5.707031 30.785156 8.445312 46.746093 8.0625 15.953125.378906 31.824219-2.359375 46.726563-8.0625 16.699218-6.347657 34.46875-9.40625 52.328125-9.003907 1.851562 0 3.636719 0 5.367187.070313 4.699219.132813 8.40625 4.042969 8.285156 8.746094-.03125 4.632812-3.816406 8.359375-8.449218 8.328125-.097656-.003906-.199219-.003906-.296875-.007813-1.585938-.070312-3.199219-.070312-4.90625-.070312-15.953125-.378907-31.828125 2.359375-46.730469 8.066406-16.695312 6.34375-34.464844 9.402344-52.324219 9zm0 0" fill="#ebebeb"/><path d="m107.519531 358.296875c-10.917969.148437-21.820312-.90625-32.511719-3.140625-4.628906-.890625-7.65625-5.363281-6.765624-9.992188.890624-4.625 5.363281-7.65625 9.992187-6.765624.144531.027343.285156.058593.425781.09375 9.492188 1.957031 19.167969 2.878906 28.859375 2.738281 15.945313.378906 31.808594-2.359375 46.703125-8.0625 16.683594-6.34375 34.4375-9.398438 52.285156-9.003907 4.710938 0 8.53125 3.820313 8.53125 8.535157 0 4.710937-3.820312 8.53125-8.53125 8.53125-15.945312-.378907-31.808593 2.359375-46.703124 8.066406-16.6875 6.339844-34.441407 9.398437-52.285157 9zm0 0" fill="#eaeae8"/><path d="m42.667969 344.984375c-.707031.003906-1.410157-.082031-2.09375-.253906-10.492188-2.503907-21.253907-3.679688-32.039063-3.5-4.714844 0-8.535156-3.820313-8.535156-8.53125 0-4.714844 3.820312-8.535157 8.535156-8.535157 12.191406-.1875 24.359375 1.160157 36.214844 4.019532 4.566406 1.164062 7.324219 5.8125 6.160156 10.378906-.960937 3.769531-4.351562 6.410156-8.242187 6.421875zm0 0" fill="#dbdbdb"/><path d="m503.464844 409.5c-17.847656.394531-35.601563-2.664062-52.289063-9.003906-14.894531-5.699219-30.753906-8.441406-46.695312-8.066406-15.949219-.378907-31.820313 2.363281-46.71875 8.066406-4.542969 1.570312-9.082031 3.132812-14.175781 4.496094-4.550782 1.226562-9.234376-1.472657-10.460938-6.023438-1.226562-4.554688 1.472656-9.238281 6.023438-10.460938 4.695312-1.257812 8.867187-2.707031 13.046874-4.140624 16.6875-6.34375 34.441407-9.398438 52.285157-9.003907 17.847656-.394531 35.605469 2.660157 52.292969 9.003907 14.890624 5.699218 30.753906 8.4375 46.691406 8.0625 4.714844 0 8.535156 3.820312 8.535156 8.535156 0 4.710937-3.820312 8.535156-8.535156 8.535156zm0 0" fill="#eaeae8"/><path d="m305.425781 409.5c-17.835937.394531-35.582031-2.664062-52.257812-9.003906-14.882813-5.699219-30.730469-8.4375-46.660157-8.066406-15.945312-.375-31.808593 2.363281-46.703124 8.066406-3.996094 1.371094-7.988282 2.753906-12.367188 3.992187-4.527344 1.3125-9.257812-1.296875-10.566406-5.824219-1.3125-4.527343 1.296875-9.257812 5.824218-10.570312.027344-.007812.054688-.015625.085938-.023438 4.050781-1.152343 7.753906-2.433593 11.457031-3.703124 16.679688-6.34375 34.429688-9.398438 52.269531-9.003907 17.839844-.398437 35.585938 2.660157 52.265626 9.003907 14.878906 5.699218 30.722656 8.4375 46.652343 8.0625 4.710938 0 8.53125 3.820312 8.53125 8.535156 0 4.710937-3.820312 8.535156-8.53125 8.535156zm0 0" fill="#dbdbdb"/><path d="m110.933594 409.5c-18.332032.265625-36.5625-2.761719-53.820313-8.945312-15.566406-5.628907-32.027343-8.382813-48.578125-8.125-4.714844 0-8.535156-3.820313-8.535156-8.53125 0-4.714844 3.820312-8.535157 8.535156-8.535157 18.328125-.265625 36.558594 2.761719 53.816406 8.945313 15.566407 5.628906 32.03125 8.382812 48.582032 8.121094 4.710937 0 8.53125 3.824218 8.53125 8.535156 0 4.710937-3.820313 8.535156-8.53125 8.535156zm0 0" fill="#eaeae8"/><path d="m503.464844 460.699219c-17.847656.394531-35.609375-2.664063-52.296875-9.003907-10.808594-4.140624-22.15625-6.699218-33.691407-7.59375-4.699218-.351562-8.226562-4.441406-7.878906-9.140624 0-.011719 0-.023438.003906-.035157.316407-4.652343 4.347657-8.171875 9-7.851562.054688 0 .109376.007812.164063.011719 12.984375 1 25.761719 3.855468 37.9375 8.480468 14.914063 5.707032 30.800781 8.445313 46.765625 8.066406 4.710938 0 8.53125 3.820313 8.53125 8.53125 0 4.714844-3.820312 8.535157-8.535156 8.535157zm0 0" fill="#eaeae8"/><path d="m305.425781 460.699219c-11.539062.167969-23.054687-1.023438-34.3125-3.550781-4.589843-1.078126-7.433593-5.671876-6.355469-10.261719 1.082032-4.589844 5.675782-7.433594 10.261719-6.351563 9.980469 2.21875 20.183594 3.257813 30.40625 3.097656 15.953125.375 31.824219-2.363281 46.726563-8.066406 9.933594-3.734375 20.253906-6.339844 30.773437-7.757812 4.675781-.59375 8.949219 2.71875 9.542969 7.394531.59375 4.679687-2.714844 8.953125-7.394531 9.546875-9.351563 1.277344-18.535157 3.609375-27.367188 6.945312-16.683593 6.339844-34.4375 9.398438-52.28125 9.003907zm0 0" fill="#ebebeb"/><path d="m107.519531 460.699219c-7.808593.046875-15.609375-.453125-23.347656-1.496094-4.675781-.578125-8-4.839844-7.417969-9.515625.578125-4.675781 4.835938-8 9.515625-7.421875.097657.015625.195313.027344.292969.042969 6.945312.929687 13.949219 1.371094 20.957031 1.324218 15.945313.378907 31.808594-2.359374 46.703125-8.066406 16.683594-6.339844 34.4375-9.398437 52.285156-9 11.578126-.175781 23.136719 1.027344 34.429688 3.582032 4.625.914062 7.628906 5.40625 6.714844 10.027343-.917969 4.625-5.40625 7.628907-10.03125 6.714844-.203125-.042969-.40625-.089844-.609375-.144531-10.011719-2.234375-20.25-3.277344-30.503907-3.113282-15.945312-.382812-31.8125 2.359376-46.703124 8.0625-16.6875 6.34375-34.441407 9.398438-52.285157 9.003907zm0 0" fill="#eaeae8"/><path d="m51.199219 449.859375c-.886719 0-1.769531-.132813-2.617188-.398437-12.921875-4.214844-26.464843-6.183594-40.046875-5.828126-4.714844 0-8.535156-3.820312-8.535156-8.535156 0-4.710937 3.820312-8.53125 8.535156-8.53125 15.359375-.355468 30.671875 1.890625 45.285156 6.636719 4.484376 1.445313 6.953126 6.25 5.511719 10.738281-1.136719 3.53125-4.421875 5.921875-8.132812 5.917969zm0 0" fill="#ebebeb"/></svg>