<svg height="512pt" viewBox="0 -29 512 512" width="512pt" xmlns="http://www.w3.org/2000/svg"><path d="m351.550781 175.886719c0 34.25-27.121093 62.160156-61.0625 63.441406-.800781.039063-1.613281.058594-2.425781.058594h-241.09375c-25.933594 0-46.96875-21.019531-46.96875-46.957031 0-25.945313 21.023438-46.96875 46.96875-46.96875h26.453125v-.171876c0-51.945312 42.109375-94.082031 94.09375-94.082031 43.152344 0 79.519531 29.046875 90.609375 68.660157 42.0625-22.476563 93.425781 7.953124 93.425781 56.019531zm0 0" fill="#dae2f2"/><path d="m351.550781 175.886719c0 34.25-27.121093 62.160156-61.0625 63.441406-.800781.039063-1.613281.058594-2.425781.058594h-123.257812v-188.144531c43.242187-1.367188 81.761718 27.335937 93.320312 68.625 42.0625-22.476563 93.425781 7.953124 93.425781 56.019531zm0 0" fill="#b9ceed"/><path d="m509.292969 153.753906c0 84.90625-68.835938 153.742188-153.753907 153.742188-84.90625 0-153.742187-68.835938-153.742187-153.742188 0-84.917968 68.835937-153.753906 153.742187-153.753906 84.917969 0 153.753907 68.835938 153.753907 153.753906zm0 0" fill="#ffeb99"/><path d="m509.292969 153.753906c0 84.90625-68.835938 153.742188-153.753907 153.742188v-307.496094c84.917969 0 153.753907 68.835938 153.753907 153.753906zm0 0" fill="#ffde55"/><path d="m512 361.210938c0 51.273437-41.671875 92.320312-92.300781 92.320312h-350.527344c-37.679687 0-68.269531-30.566406-68.269531-68.269531 0-37.722657 30.566406-68.289063 68.269531-68.289063h38.476563c0-.070312-.007813-.164062-.007813-.238281 0-79.84375 68.25-143.246094 148.808594-136.289063 57.40625 4.996094 104.636719 45.441407 119.726562 99.324219 12.96875-6.941406 27.769531-10.886719 43.503907-10.886719 50.992187 0 92.320312 41.335938 92.320312 92.328126zm0 0" fill="#eef6ff"/><path d="m512 361.210938c0 51.273437-41.671875 92.320312-92.300781 92.320312h-182.398438v-273.417969c64.710938-3.390625 121.859375 38.902344 138.875 99.65625 12.96875-6.941406 27.769531-10.886719 43.503907-10.886719 50.992187 0 92.320312 41.335938 92.320312 92.328126zm0 0" fill="#dae2f2"/></svg>