<svg height="463pt" viewBox="-12 0 463 463.99593" width="463pt" xmlns="http://www.w3.org/2000/svg"><path d="m350.988281 256.003906c44.183594 0 80-35.816406 80-80s-35.816406-80-80-80c-8.410156 0-16.773437 1.289063-24.800781 3.816406.195312-1.265624.3125-2.539062.355469-3.816406-.171875-17.839844-14.769531-32.164062-32.609375-32-3.515625.042969-7.003906.644532-10.328125 1.792969-6.542969-20.25-25.449219-33.921875-46.726563-33.792969-9.667968-.015625-19.125 2.808594-27.203125 8.121094-14.75-24.953125-41.621093-40.21875-70.605469-40.12109375-44.59375-.39453125-81.074218 35.41015575-81.511718 79.99999975.015625 6.421875.820312 12.816406 2.398437 19.039063-39.097656 10.308593-64.308593 48.234375-58.683593 88.277343 5.628906 40.042969 40.3125 69.546876 80.738281 68.683594zm0 0" fill="#808080"/><g fill="#00bbd6"><path d="m168.5 297.828125-19.199219 43.855469c-2.949219 6.722656-1.996093 14.515625 2.488281 20.328125 4.023438 5.160156 10.199219 8.175781 16.746094 8.175781 6.542969 0 12.71875-3.015625 16.742188-8.175781 4.460937-5.824219 5.390625-13.617188 2.425781-20.328125zm0 0"/><path d="m85.429688 288.003906-19.199219 43.855469c-2.953125 6.722656-2 14.515625 2.488281 20.328125 4.019531 5.160156 10.195312 8.175781 16.738281 8.175781s12.71875-3.015625 16.742188-8.175781c4.488281-5.808594 5.445312-13.605469 2.492187-20.328125zm0 0"/><path d="m123.574219 391.636719-19.199219 43.863281c-2.960938 6.71875-2.003906 14.515625 2.496094 20.320312 4.019531 5.160157 10.195312 8.175782 16.738281 8.175782s12.71875-3.015625 16.738281-8.175782c4.484375-5.808593 5.441406-13.601562 2.488282-20.320312zm0 0"/><path d="m347.574219 297.828125-19.199219 43.855469c-2.953125 6.722656-1.996094 14.519531 2.496094 20.328125 4.019531 5.160156 10.195312 8.175781 16.738281 8.175781s12.71875-3.015625 16.738281-8.175781c4.484375-5.8125 5.441406-13.605469 2.488282-20.328125zm0 0"/><path d="m264.5 288.003906-19.199219 43.855469c-2.949219 6.722656-1.996093 14.515625 2.488281 20.328125 4.023438 5.160156 10.199219 8.175781 16.746094 8.175781 6.542969 0 12.71875-3.015625 16.742188-8.175781 4.484375-5.8125 5.441406-13.605469 2.488281-20.328125zm0 0"/><path d="m302.644531 391.636719-19.199219 43.863281c-2.949218 6.71875-1.992187 14.511719 2.496094 20.320312 4.023438 5.160157 10.199219 8.175782 16.738282 8.175782 6.542968 0 12.71875-3.015625 16.742187-8.175782 4.484375-5.808593 5.441406-13.601562 2.496094-20.320312zm0 0"/><path d="m211.574219 391.636719-19.199219 43.863281c-2.960938 6.71875-2.003906 14.515625 2.496094 20.320312 4.019531 5.160157 10.195312 8.175782 16.738281 8.175782s12.71875-3.015625 16.738281-8.175782c4.484375-5.808593 5.441406-13.601562 2.488282-20.320312zm0 0"/></g><path d="m344.5 256.003906c-4.417969 0-8-3.582031-8-8 0-4.417968 3.582031-8 8-8 39.328125 0 80-23.9375 80-64 0-39.765625-32.234375-72-72-72-39.761719 0-72 32.234375-72 72 0 4.417969-3.582031 8-8 8s-8-3.582031-8-8c0-48.601562 39.398438-88 88-88s88 39.398438 88 88c0 50.078125-48.796875 80-96 80zm0 0" fill="#4d4d4d"/><path d="m142.644531 198.402344c-3.234375 0-6.152343-1.949219-7.386719-4.9375-1.238281-2.988282-.554687-6.429688 1.730469-8.71875 12.503907-12.496094 12.503907-32.765625 0-45.261719-12.667969-12.078125-32.59375-12.078125-45.261719 0-3.140624 3.03125-8.128906 2.988281-11.214843-.097656-3.085938-3.085938-3.128907-8.078125-.097657-11.214844 18.746094-18.746094 49.140626-18.746094 67.886719 0 18.746094 18.746094 18.746094 49.140625 0 67.886719-1.5 1.5-3.535156 2.34375-5.65625 2.34375zm0 0" fill="#4d4d4d"/><path d="m200.5 56.003906c-3.34375 0-6.335938-2.082031-7.496094-5.21875-1.164062-3.136718-.253906-6.664062 2.28125-8.847656l9.152344-7.871094c3.371094-2.554687 8.148438-2.042968 10.902344 1.167969s2.535156 8.007813-.503906 10.953125l-9.160157 7.878906c-1.4375 1.242188-3.273437 1.929688-5.175781 1.9375zm0 0" fill="#4d4d4d"/></svg>