<svg height="512pt" viewBox="0 -7 512 512" width="512pt" xmlns="http://www.w3.org/2000/svg"><path d="m223.777344 379.941406h-31.503906l36.230468-87.5625c3.257813-7.867187-.484375-16.882812-8.351562-20.140625-7.867188-3.253906-16.882813.484375-20.140625 8.351563l-45.050781 108.875c-4.195313 10.144531 3.273437 21.3125 14.246093 21.3125h30.71875l-29.359375 65.175781c-3.496094 7.765625-.039062 16.894531 7.726563 20.390625 7.769531 3.5 16.894531.03125 20.386719-7.726562l39.15625-86.925782c4.589843-10.195312-2.882813-21.75-14.058594-21.75zm0 0" fill="#ffcd00"/><path d="m105.816406 403.8125h-16.515625l16.277344-39.335938c3.257813-7.867187-.480469-16.886718-8.351563-20.140624-7.867187-3.253907-16.882812.480468-20.140624 8.351562l-25.09375 60.644531c-4.199219 10.140625 3.273437 21.3125 14.242187 21.3125h15.726563l-18.605469 41.304688c-3.496094 7.765625-.035157 16.894531 7.726562 20.390625 7.78125 3.503906 16.898438.027344 20.390625-7.726563l28.398438-63.054687c4.59375-10.191406-2.878906-21.746094-14.054688-21.746094zm0 0" fill="#ffda44"/><path d="m326.75 403.8125h-16.515625l16.28125-39.335938c3.253906-7.867187-.484375-16.886718-8.351563-20.140624-7.867187-3.253907-16.886718.480468-20.140624 8.351562l-25.097657 60.644531c-4.195312 10.140625 3.273438 21.3125 14.246094 21.3125h15.726563l-18.605469 41.304688c-3.496094 7.765625-.039063 16.894531 7.726562 20.390625 7.777344 3.503906 16.898438.027344 20.386719-7.726563l28.402344-63.054687c4.589844-10.191406-2.882813-21.746094-14.058594-21.746094zm0 0" fill="#ffcd00"/><path d="m512 127.933594c0 70.664062-57.28125 127.933594-127.933594 127.933594-70.664062 0-127.941406-57.269532-127.941406-127.933594 0-70.652344 57.277344-127.933594 127.941406-127.933594 70.652344 0 127.933594 57.28125 127.933594 127.933594zm0 0" fill="#ffeb99"/><path d="m512 127.933594c0 70.664062-57.28125 127.933594-127.933594 127.933594v-255.867188c70.652344 0 127.933594 57.28125 127.933594 127.933594zm0 0" fill="#ffde55"/><path d="m409.75 243.539062c0 41.085938-33.386719 74.019532-74 74.019532h-281.007812c-30.242188 0-54.742188-24.507813-54.742188-54.738282 0-30.230468 24.507812-54.742187 54.742188-54.742187h30.832031v-.1875c0-62.726563 52.460937-112.332031 114.324219-109.578125 48.242187 2.019531 88.4375 35.203125 100.964843 79.9375 48.972657-26.226562 108.886719 9.265625 108.886719 65.289062zm0 0" fill="#eef6ff"/><path d="m409.75 243.539062c0 41.085938-33.386719 74.019532-74 74.019532h-135.851562v-219.246094c48.238281 2.019531 88.4375 35.203125 100.960937 79.9375 48.976563-26.226562 108.890625 9.265625 108.890625 65.289062zm0 0" fill="#dae2f2"/></svg>