<svg height="512pt" viewBox="0 -5 512 512" width="512pt" xmlns="http://www.w3.org/2000/svg"><g fill="#7ed8f6"><path d="m74.042969 398.839844c-7.871094-3.253906-16.886719.484375-20.140625 8.355468l-30.277344 73.191407c-3.253906 7.867187.484375 16.882812 8.355469 20.140625 7.867187 3.253906 16.882812-.488282 20.136719-8.355469l30.277343-73.191406c3.253907-7.867188-.484375-16.882813-8.351562-20.140625zm0 0"/><path d="m107.160156 359.117188c3.253906-7.867188-.488281-16.886719-8.355468-20.140626-7.867188-3.253906-16.882813.484376-20.140626 8.351563l-5.589843 13.515625c-3.253907 7.867188.484375 16.882812 8.355469 20.140625 7.867187 3.253906 16.882812-.484375 20.140624-8.355469zm0 0"/><path d="m130.246094 447.304688c-7.867188-3.253907-16.886719.484374-20.140625 8.351562l-10.230469 24.730469c-3.253906 7.867187.484375 16.886719 8.351562 20.140625 7.871094 3.253906 16.886719-.484375 20.140626-8.351563l10.230468-24.730469c3.253906-7.867187-.484375-16.886718-8.351562-20.140624zm0 0"/><path d="m175.054688 338.976562c-7.867188-3.253906-16.886719.484376-20.140626 8.351563l-23.714843 57.339844c-3.257813 7.867187.484375 16.882812 8.351562 20.140625 7.867188 3.253906 16.886719-.488282 20.140625-8.355469l23.714844-57.335937c3.257812-7.867188-.484375-16.886719-8.351562-20.140626zm0 0"/></g><path d="m230.273438 398.839844c-7.871094-3.253906-16.886719.484375-20.140626 8.355468l-30.277343 73.191407c-3.257813 7.867187.484375 16.882812 8.351562 20.140625 7.871094 3.253906 16.886719-.488282 20.140625-8.355469l30.277344-73.191406c3.253906-7.867188-.484375-16.882813-8.351562-20.140625zm0 0" fill="#5ecef4"/><path d="m263.386719 359.117188c3.257812-7.867188-.484375-16.886719-8.351563-20.140626-7.871094-3.253906-16.886718.484376-20.140625 8.351563l-5.589843 13.515625c-3.253907 7.867188.484374 16.882812 8.351562 20.140625 7.871094 3.253906 16.886719-.484375 20.140625-8.355469zm0 0" fill="#5ecef4"/><path d="m286.472656 447.304688c-7.867187-3.253907-16.882812.484374-20.140625 8.351562l-10.226562 24.730469c-3.257813 7.867187.484375 16.886719 8.351562 20.140625 7.867188 3.253906 16.886719-.484375 20.140625-8.351563l10.230469-24.730469c3.253906-7.867187-.484375-16.886718-8.355469-20.140624zm0 0" fill="#5ecef4"/><path d="m331.285156 338.976562c-7.867187-3.253906-16.886718.484376-20.140625 8.351563l-23.71875 57.339844c-3.253906 7.867187.484375 16.882812 8.355469 20.140625 7.867188 3.253906 16.882812-.488282 20.136719-8.355469l23.71875-57.335937c3.253906-7.867188-.484375-16.886719-8.351563-20.140626zm0 0" fill="#5ecef4"/><path d="m512 127.933594c0 70.664062-57.28125 127.933594-127.933594 127.933594-70.664062 0-127.941406-57.269532-127.941406-127.933594 0-70.652344 57.277344-127.933594 127.941406-127.933594 70.652344 0 127.933594 57.28125 127.933594 127.933594zm0 0" fill="#ffeb99"/><path d="m512 127.933594c0 70.664062-57.28125 127.933594-127.933594 127.933594v-255.867188c70.652344 0 127.933594 57.28125 127.933594 127.933594zm0 0" fill="#ffde55"/><path d="m409.75 243.539062c0 41.085938-33.386719 74.019532-74 74.019532h-281.007812c-30.242188 0-54.742188-24.507813-54.742188-54.738282 0-30.230468 24.507812-54.742187 54.742188-54.742187h30.832031v-.1875c0-62.726563 52.460937-112.332031 114.324219-109.578125 48.242187 2.019531 88.4375 35.203125 100.964843 79.9375 48.972657-26.226562 108.886719 9.265625 108.886719 65.289062zm0 0" fill="#dae2f2"/><path d="m409.75 243.539062c0 41.085938-33.386719 74.019532-74 74.019532h-135.851562v-219.246094c48.238281 2.015625 88.4375 35.203125 100.960937 79.9375 48.976563-26.226562 108.890625 9.265625 108.890625 65.289062zm0 0" fill="#b9ceed"/></svg>